<?xml version="1.0" standalone="no"?>
<svg xmlns:xlink="http://www.w3.org/1999/xlink" id="wave" style="transform:rotate(0deg); transition: 0.3s" viewBox="0 0 1440 360" version="1.1" xmlns="http://www.w3.org/2000/svg"><defs><linearGradient id="sw-gradient-0" x1="0" x2="0" y1="1" y2="0"><stop stop-color="rgba(255, 255, 255, 1)" offset="0%"/><stop stop-color="rgba(255, 255, 255, 1)" offset="100%"/></linearGradient></defs><path style="transform:translate(0, 0px); opacity:1" fill="url(#sw-gradient-0)" d="M0,108L60,96C120,84,240,60,360,54C480,48,600,60,720,96C840,132,960,192,1080,228C1200,264,1320,276,1440,276C1560,276,1680,264,1800,240C1920,216,2040,180,2160,180C2280,180,2400,216,2520,216C2640,216,2760,180,2880,150C3000,120,3120,96,3240,84C3360,72,3480,72,3600,108C3720,144,3840,216,3960,234C4080,252,4200,216,4320,180C4440,144,4560,108,4680,132C4800,156,4920,240,5040,228C5160,216,5280,108,5400,96C5520,84,5640,168,5760,168C5880,168,6000,84,6120,96C6240,108,6360,216,6480,228C6600,240,6720,156,6840,120C6960,84,7080,96,7200,90C7320,84,7440,60,7560,96C7680,132,7800,228,7920,270C8040,312,8160,300,8280,294C8400,288,8520,288,8580,288L8640,288L8640,360L8580,360C8520,360,8400,360,8280,360C8160,360,8040,360,7920,360C7800,360,7680,360,7560,360C7440,360,7320,360,7200,360C7080,360,6960,360,6840,360C6720,360,6600,360,6480,360C6360,360,6240,360,6120,360C6000,360,5880,360,5760,360C5640,360,5520,360,5400,360C5280,360,5160,360,5040,360C4920,360,4800,360,4680,360C4560,360,4440,360,4320,360C4200,360,4080,360,3960,360C3840,360,3720,360,3600,360C3480,360,3360,360,3240,360C3120,360,3000,360,2880,360C2760,360,2640,360,2520,360C2400,360,2280,360,2160,360C2040,360,1920,360,1800,360C1680,360,1560,360,1440,360C1320,360,1200,360,1080,360C960,360,840,360,720,360C600,360,480,360,360,360C240,360,120,360,60,360L0,360Z"/></svg>