<?xml version="1.0" encoding="utf-8"?><svg xmlns="http://www.w3.org/2000/svg" xmlns:xlink="http://www.w3.org/1999/xlink" width="1920" height="628" preserveAspectRatio="xMidYMid" viewBox="0 0 1920 628" style="z-index:1;margin-right:-2px;display:block;background-repeat-y:initial;background-repeat-x:initial;animation-play-state:paused" ><g transform="translate(960,314) scale(1,-1) translate(-960,-314)" style="transform:matrix(1, 0, 0, -1, 0, 628);animation-play-state:paused" ><linearGradient id="lg-0.9290586628471524" x1="0" x2="1" y1="0" y2="0" style="animation-play-state:paused" ><stop stop-color="#2ec5b2" offset="0" style="animation-play-state:paused" ></stop>

  
<stop stop-color="#0a99d1" offset="1" style="animation-play-state:paused" ></stop></linearGradient>
<path d="M 0 0 L 0 497.523 Q 192 115.929 384 71.0153 T 768 -298.957 T 1152 -653.919 T 1536 -1048.19 T 1920 -1441.85 L 1920 0 Z" fill="url(#lg-0.9290586628471524)" opacity="0.51" style="opacity:0.51;animation-play-state:paused" ></path>
<path d="M 0 0 L 0 431.213 Q 192 132.009 384 100.68 T 768 -225.194 T 1152 -533.724 T 1536 -825.588 T 1920 -1152.72 L 1920 0 Z" fill="url(#lg-0.9290586628471524)" opacity="0.51" style="opacity:0.51;animation-play-state:paused" ></path>
<path d="M 0 0 L 0 462.451 Q 192 105.437 384 71.9335 T 768 -242.005 T 1152 -565.238 T 1536 -916.16 T 1920 -1212.74 L 1920 0 Z" fill="url(#lg-0.9290586628471524)" opacity="0.51" style="opacity:0.51;animation-play-state:paused" ></path></g></svg>