<?xml version="1.0" encoding="utf-8"?><svg xmlns="http://www.w3.org/2000/svg" xmlns:xlink="http://www.w3.org/1999/xlink" width="1920" height="628" preserveAspectRatio="xMidYMid" viewBox="0 0 1920 628" style="z-index:1;margin-right:-2px;display:block;background-repeat-y:initial;background-repeat-x:initial;animation-play-state:paused" ><g transform="translate(960,314) scale(-1,1) translate(-960,-314)" style="transform:matrix(-1, 0, 0, 1, 1920, 0);animation-play-state:paused" ><linearGradient id="lg-0.6695880726533217" x1="0" x2="1" y1="0" y2="0" style="animation-play-state:paused" ><stop stop-color="#2ec5b2" offset="0" style="animation-play-state:paused" ></stop>

  
<stop stop-color="#0a99d1" offset="1" style="animation-play-state:paused" ></stop></linearGradient>
<path d="M 0 0 L 0 430.604 Q 192 108.939 384 81.6622 T 768 -307.519 T 1152 -664.483 T 1536 -1038.63 T 1920 -1519.69 L 1920 0 Z" fill="url(#lg-0.6695880726533217)" opacity="0.51" style="opacity:0.51;animation-play-state:paused" ></path>
<path d="M 0 0 L 0 468.305 Q 192 96.5414 384 74.0095 T 768 -241.516 T 1152 -602.137 T 1536 -900.424 T 1920 -1191.36 L 1920 0 Z" fill="url(#lg-0.6695880726533217)" opacity="0.51" style="opacity:0.51;animation-play-state:paused" ></path>
<path d="M 0 0 L 0 438.034 Q 192 78.5842 384 49.8019 T 768 -316.79 T 1152 -694.655 T 1536 -1127.96 T 1920 -1553.43 L 1920 0 Z" fill="url(#lg-0.6695880726533217)" opacity="0.51" style="opacity:0.51;animation-play-state:paused" ></path></g></svg>